PathFileType	4	(X/Y/Z)	/Users/niels/Desktop/University/Third Semester/Perception and Action/Exam/Gymnastics Motion Tracking/Code for Gym Tracking/Analyzed Data/Webcam_Backflip/id19_1_trajectory_Sports2D/id19_1_trajectory_Sports2D_px_person00.trc
DataRate	CameraRate	NumFrames	NumMarkers	Units	OrigDataRate	OrigDataStartFrame	OrigNumFrames
29.702970297029704	29.702970297029704	10	22	m	29.702970297029704	37	101
Frame#	Time	Hip			RHip			RKnee			RAnkle			RBigToe			RSmallToe			RHeel			LHip			LKnee			LAnkle			LBigToe			LSmallToe			LHeel			Neck			Head			Nose			RShoulder			RElbow			RWrist			LShoulder			LElbow			LWrist		
		X1	Y1	Z1	X2	Y2	Z2	X3	Y3	Z3	X4	Y4	Z4	X5	Y5	Z5	X6	Y6	Z6	X7	Y7	Z7	X8	Y8	Z8	X9	Y9	Z9	X10	Y10	Z10	X11	Y11	Z11	X12	Y12	Z12	X13	Y13	Z13	X14	Y14	Z14	X15	Y15	Z15	X16	Y16	Z16	X17	Y17	Z17	X18	Y18	Z18	X19	Y19	Z19	X20	Y20	Z20	X21	Y21	Z21	X22	Y22	Z22
37	1.2456666666666665	0.9284218510533226	-0.7739390042207359	0.0	0.9270946503451147	-0.7739918361826944	0.0	0.9558215467093447	-0.865490896087293	0.0	0.9320433593231229	-0.9434912148000973	0.0	0.947001524438809	-0.9424432243672838	0.0	0.9386108277806067	-0.9779740646812994	0.0	0.9238868786299301	-0.9392992310866237	0.0	0.9285602483409773	-0.7737731019362338	0.0	0.9523494974685537	-0.8637238971521468	0.0	0.9277692923264526	-0.9444644534553229	0.0	0.9564550140464152	-0.9752316586562326	0.0	0.932147254643097	-0.9407263476589023	0.0	0.9139719695228924	-0.9144768475456414	0.0	0.9567225999648973	-0.64087239710218	0.0	0.9683992090174723	-0.5765832318357695	0.0	0.9734805874211157	-0.6060807096276436	0.0	0.9572759961603382	-0.6467557325119543	0.0	0.996643120246126	-0.6142081220384482	0.0	1.0189585523816314	-0.5742270408370869	0.0	0.9552323612520303	-0.646719001836211	0.0	0.9797432880599845	-0.6372755671543847	0.0	0.9944548224894698	-0.5720920304327559	0.0
38	1.2793333333333332	0.9367110099981512	-0.763645582065602	0.0	0.9372293625734237	-0.7639122326614639	0.0	0.9563098581632818	-0.8551308975323908	0.0	0.9338329218425745	-0.9351873075296427	0.0	0.9419614869805378	-0.9319084994301106	0.0	0.9388822535191901	-0.9645252459552374	0.0	0.9277421338992967	-0.9329033282257377	0.0	0.9349725168212074	-0.76438815309228	0.0	0.9515838836430532	-0.8541741669375033	0.0	0.9290456181356755	-0.9361376348430778	0.0	0.9501530354110865	-0.964853024449508	0.0	0.9277151406601817	-0.9366090157394552	0.0	0.9184270424729002	-0.9118690707703201	0.0	0.9514832267836055	-0.6299116999060012	0.0	0.9564048362796493	-0.5629979815478175	0.0	0.9603914308748259	-0.5906304615934177	0.0	0.953681625218042	-0.6315211210047155	0.0	0.9793364764360075	-0.579927227786354	0.0	0.9870476959106714	-0.5276907704046655	0.0	0.9490478695545275	-0.6330022011537648	0.0	0.9630558646991821	-0.6024700121297903	0.0	0.963348012720932	-0.5289116787151146	0.0
39	1.313	0.9448789551444157	-0.7442144049283855	0.0	0.9470767111266443	-0.7448820386752193	0.0	0.9618300187221493	-0.8343636103819814	0.0	0.9384600679301708	-0.9193968826217458	0.0	0.9437318018483712	-0.918986526441642	0.0	0.9442402808101228	-0.9445120987019405	0.0	0.9332608624974205	-0.9214891985625343	0.0	0.9424869976782937	-0.7457821353712739	0.0	0.9560734490974997	-0.8343583462738026	0.0	0.9342070655954935	-0.9203358586299198	0.0	0.9506289291717752	-0.9460095342317624	0.0	0.9325750188061032	-0.9285710320123124	0.0	0.925638036581278	-0.907085216461708	0.0	0.9450488124857847	-0.6122279685901869	0.0	0.9433234821257095	-0.5423015193064408	0.0	0.9486383716362	-0.5686275052487147	0.0	0.947376476880017	-0.6100364482944127	0.0	0.9579151539749935	-0.5455809811068321	0.0	0.9517889328746143	-0.48645314525989114	0.0	0.94180045516642	-0.6129166632267005	0.0	0.945905923666876	-0.5633734109076926	0.0	0.9334720182665716	-0.4903350163296277	0.0
40	1.3466666666666667	0.9520064661330417	-0.7174886292776129	0.0	0.9553543485827594	-0.7187601804444275	0.0	0.9735302237596706	-0.8046755668189878	0.0	0.948211235147056	-0.8968384967304617	0.0	0.9554744671462957	-0.9029884681647495	0.0	0.9565797576674087	-0.9202764335935617	0.0	0.9425687874143428	-0.9041928558996364	0.0	0.9501973050949094	-0.7196268101077665	0.0	0.9668945172524537	-0.805460756196173	0.0	0.9449780723448173	-0.8976147846062944	0.0	0.9609841306708545	-0.9210046779401116	0.0	0.9475904924444031	-0.9137604389164564	0.0	0.9370212165150165	-0.8960415236698375	0.0	0.9368702801753651	-0.588904463818307	0.0	0.9295953053121724	-0.5161640078174126	0.0	0.9385824994584333	-0.5420576298495529	0.0	0.9381591475577833	-0.5839640642408398	0.0	0.9362895940776378	-0.5127817934028738	0.0	0.9201909135019273	-0.4507200787911133	0.0	0.9331226551369933	-0.5879953078255833	0.0	0.929694335972231	-0.5250980579046733	0.0	0.9087566283220123	-0.456660449311404	0.0
41	1.3803333333333332	0.9573758755184041	-0.6863888776351819	0.0	0.9610217341993481	-0.6883508799055923	0.0	0.9906363923061741	-0.7672892028838264	0.0	0.9652494919303577	-0.8667223660490854	0.0	0.9783683902824301	-0.8801412796382755	0.0	0.9776741076500405	-0.8906261042104827	0.0	0.9586145594554903	-0.878788188781181	0.0	0.9571023648052228	-0.6886643870252097	0.0	0.9835202670039911	-0.7683929422821756	0.0	0.963143848111129	-0.8671052112242206	0.0	0.9825413210419414	-0.8896058945520702	0.0	0.9729474733078826	-0.889180104479601	0.0	0.9551268155156818	-0.8749557653331064	0.0	0.9270434206474597	-0.561932292779528	0.0	0.9159635437668672	-0.48714498150659563	0.0	0.9296078264206188	-0.5135401963276104	0.0	0.9266182424186247	-0.5556390152128199	0.0	0.9174157895652302	-0.4826981072551539	0.0	0.8965443330585894	-0.42032613669082575	0.0	0.9235030642218656	-0.5604431717704101	0.0	0.9159020677530639	-0.4908814605313565	0.0	0.8915313343774701	-0.4278372052220356	0.0
42	1.414	0.960590660673316	-0.6541411513144602	0.0	0.96363584894326	-0.6568077362276864	0.0	1.010440485161698	-0.7233837317572182	0.0	0.990482801701789	-0.8274079780063608	0.0	1.0116021007929805	-0.8456190531678037	0.0	1.0082924431887992	-0.8520945555941668	0.0	0.983482606695707	-0.8427999731259378	0.0	0.9621725237445592	-0.6559401361639312	0.0	1.0035487969244623	-0.7239605316864303	0.0	0.9895392015503608	-0.8269561455160385	0.0	1.0146867449440413	-0.8487040456804976	0.0	1.0079165067855291	-0.8515072597000802	0.0	0.9820031101791269	-0.8411717103237957	0.0	0.9162635958467561	-0.5338782996472454	0.0	0.9031693793751897	-0.45815157142940777	0.0	0.921047537939092	-0.48573439867783696	0.0	0.9139937464675133	-0.527609817831049	0.0	0.9032970356864756	-0.45644945128513986	0.0	0.8828831202755274	-0.3954849320203779	0.0	0.9138152565130891	-0.5327602918640711	0.0	0.9059832689327755	-0.4622999631191884	0.0	0.8829295825464772	-0.4044116189040647	0.0
43	1.4476666666666667	0.9617016300381669	-0.6234169270171948	0.0	0.963562441954284	-0.6268718137718217	0.0	1.0292004939883945	-0.6747081417288504	0.0	1.0227042087969567	-0.7774793832940644	0.0	1.052266179826015	-0.7957105868218161	0.0	1.0468382682858532	-0.8011376985139835	0.0	1.016980296724607	-0.7945397263949184	0.0	0.9647851454262005	-0.6240265404099601	0.0	1.0233444540475929	-0.6736486506154263	0.0	1.0229341788116215	-0.7754774176193855	0.0	1.054472824652574	-0.7944542337525015	0.0	1.0497945333601384	-0.7979279710291416	0.0	1.0175525125037657	-0.7932735125694416	0.0	0.9056095562722809	-0.5072568571956895	0.0	0.8916055742475316	-0.4318564854823657	0.0	0.912815011884775	-0.46066511291932677	0.0	0.9018091457167767	-0.5020699366346466	0.0	0.8951120634715519	-0.4353222512092963	0.0	0.8798300522855912	-0.37686307935282104	0.0	0.9050017912411711	-0.5071461772269529	0.0	0.9009296292254433	-0.4402854824548169	0.0	0.8832320107153194	-0.38739326639788246	0.0
44	1.4813333333333332	0.9613623403022401	-0.5958646659974095	0.0	0.9619608836879928	-0.6002321429538148	0.0	1.043426535714854	-0.6236269116179481	0.0	1.0580828715136994	-0.7165020253380373	0.0	1.0946294544110629	-0.7290982053171629	0.0	1.0882235158201456	-0.7357858862167906	0.0	1.055710036771844	-0.7335950920000924	0.0	0.9652821148585408	-0.5946518649580582	0.0	1.0392715055367032	-0.6200970652556083	0.0	1.0592445366302843	-0.71229299289202	0.0	1.0960407196909172	-0.7248080675392949	0.0	1.0929452396021269	-0.7277096541816624	0.0	1.0582542552576144	-0.7314264270992089	0.0	0.8962132104818107	-0.48406133555221076	0.0	0.8811742514603267	-0.4102249959385059	0.0	0.905240987945424	-0.439455631077709	0.0	0.8913770441161076	-0.4805289090457559	0.0	0.8931428764181205	-0.42065565051544374	0.0	0.8868547987581255	-0.3653127435954159	0.0	0.8980178055779322	-0.4850939839396504	0.0	0.9011302260005902	-0.4253407307570806	0.0	0.8920949763404368	-0.37746466015085306	0.0
45	1.515	0.9608261732352115	-0.5722217673170276	0.0	0.9605493480394173	-0.5774288767324507	0.0	1.0509403985602341	-0.5727161318201939	0.0	1.0903454775428099	-0.6457635681174354	0.0	1.1302917825206664	-0.6476946051585956	0.0	1.1242672570670966	-0.6568220434037654	0.0	1.0929048239162733	-0.6612854220551125	0.0	0.9649644848289437	-0.5688720895792423	0.0	1.0487816959632221	-0.5668341118495306	0.0	1.0917163530896155	-0.6393335525401017	0.0	1.131016620411641	-0.6413183824701878	0.0	1.1290621129085667	-0.6434858586034475	0.0	1.0967278770467952	-0.6578363839194574	0.0	0.8889004774207109	-0.46568720887588577	0.0	0.871437999244519	-0.39447045572703177	0.0	0.8985206978408055	-0.42269928027058434	0.0	0.8835195890199401	-0.46390767741522215	0.0	0.8968187689446637	-0.4133776216482183	0.0	0.9021732338426748	-0.361202675561969	0.0	0.89349569115485	-0.4675175496315729	0.0	0.9062200159137316	-0.4173361826508178	0.0	0.9081687420471044	-0.37418316456660694	0.0
46	1.5486666666666666	0.9617012087398037	-0.5525267442792962	0.0	0.9612296730343158	-0.5581039554801166	0.0	1.0511959970936704	-0.5244314265432045	0.0	1.112086483989562	-0.5688187598667285	0.0	1.150264603974968	-0.5571405001268114	0.0	1.1459727595138316	-0.5685375926540857	0.0	1.1198153088644063	-0.5811653281130434	0.0	0.9655564347747867	-0.5472842980681761	0.0	1.0508149378763159	-0.5173459498785411	0.0	1.1126906546412203	-0.5611081969692753	0.0	1.1505359085217615	-0.5497590327598534	0.0	1.1492998390170543	-0.5515880354389092	0.0	1.1235388241344297	-0.5769732176008369	0.0	0.8840065100476701	-0.4529966023220211	0.0	0.8619091916682727	-0.38542338544969656	0.0	0.8923362341310647	-0.41094876422532356	0.0	0.8787432963073023	-0.4527271838740291	0.0	0.9050721883073647	-0.41328453870985987	0.0	0.9227572622675645	-0.36365299167743154	0.0	0.8912707130239673	-0.45503709362967987	0.0	0.914952747998575	-0.4152784172803096	0.0	0.9286024527550525	-0.37572168201132994	0.0
